<?xml version="1.0" standalone="no"?>
<!DOCTYPE svg PUBLIC "-//W3C//DTD SVG 20010904//EN"
 "http://www.w3.org/TR/2001/REC-SVG-20010904/DTD/svg10.dtd">
<svg version="1.0" xmlns="http://www.w3.org/2000/svg"
 width="170.000000pt" height="296.000000pt" viewBox="0 0 170.000000 296.000000"
 preserveAspectRatio="xMidYMid meet">

<g transform="translate(0.000000,296.000000) scale(0.100000,-0.100000)"
fill="#000000" stroke="none">
<path d="M800 2788 c0 -83 -28 -200 -67 -278 -32 -63 -64 -102 -199 -240 -88
-91 -175 -186 -192 -212 -43 -63 -87 -162 -101 -227 -41 -190 28 -464 146
-585 50 -51 140 -116 165 -120 8 -1 26 -9 39 -17 37 -24 69 -40 69 -35 0 3
-21 19 -47 37 -69 46 -151 128 -175 173 -23 44 -25 79 -8 151 16 73 61 135
167 233 88 81 120 118 111 128 -2 2 -57 -47 -123 -109 -82 -78 -125 -126 -140
-159 -12 -26 -25 -45 -28 -42 -3 4 -10 -9 -16 -27 -8 -29 -9 -30 -10 -9 -1 67
64 169 158 248 32 27 78 71 102 100 24 28 52 51 61 51 15 1 34 18 26 23 -2 1
-88 5 -193 8 l-190 6 285 2 285 2 -3 -802 c-1 -442 0 -809 3 -817 4 -11 11 -9
30 9 l25 23 0 794 0 793 264 0 264 0 31 26 c17 14 31 30 31 35 0 5 -124 9
-295 9 l-295 0 0 343 c0 282 -3 338 -13 317 -7 -14 -19 -25 -27 -25 -13 0 -15
-46 -15 -328 0 -180 -3 -327 -7 -327 -5 0 -8 5 -8 10 0 6 -22 10 -49 10 -28 0
-52 4 -55 9 -3 5 -92 9 -197 10 l-191 2 -47 -50 c-25 -28 -49 -51 -54 -51 -18
0 -4 31 34 74 l41 46 189 0 189 0 6 28 c11 54 24 69 18 21 -6 -46 8 -75 20
-42 7 17 -3 815 -10 822 -2 2 -4 -16 -4 -41z m-385 -858 c-10 -11 -23 -20 -28
-20 -6 0 -2 9 8 20 10 11 23 20 28 20 6 0 2 -9 -8 -20z"/>
<path d="M114 1530 c2 -408 4 -440 24 -511 11 -42 34 -104 51 -137 35 -70 118
-158 176 -187 22 -11 41 -23 43 -27 2 -4 10 -4 19 -1 11 4 14 2 9 -5 -5 -8 -2
-10 8 -6 9 3 16 1 16 -6 0 -7 8 -9 21 -5 13 4 19 3 16 -2 -5 -9 119 -45 166
-49 22 -2 81 -57 109 -102 25 -41 47 -131 48 -202 1 -30 5 -73 10 -95 5 -25 7
72 5 255 -1 162 -5 306 -8 320 -28 134 -43 174 -82 213 -34 33 -152 99 -218
121 -72 24 -159 71 -191 102 -137 135 -197 310 -216 629 -5 87 -7 -15 -6 -305z
m409 -867 c-7 -2 -19 -2 -25 0 -7 3 -2 5 12 5 14 0 19 -2 13 -5z m67 -13 c20
-6 21 -8 5 -8 -11 0 -29 3 -40 8 -25 11 1 11 35 0z m237 -247 c-3 -10 -5 -4
-5 12 0 17 2 24 5 18 2 -7 2 -21 0 -30z"/>
</g>
</svg>
